<svg xmlns="http://www.w3.org/2000/svg" viewBox="0 0 24 24" width="24" height="24">
  <defs>
    <linearGradient id="gradient" x1="0%" y1="0%" x2="100%" y2="100%">
      <stop offset="0%" stop-color="#7C3AED" />
      <stop offset="100%" stop-color="#4F46E5" />
    </linearGradient>
    <filter id="shadow" x="-20%" y="-20%" width="140%" height="140%">
      <feDropShadow dx="0" dy="1" stdDeviation="2" flood-color="#5B21B6" flood-opacity="0.3" />
    </filter>
  </defs>
  <rect x="2" y="2" width="20" height="20" rx="6" fill="url(#gradient)" filter="url(#shadow)" />
  <path d="M12 7c-2.757 0-5 2.243-5 5s2.243 5 5 5 5-2.243 5-5-2.243-5-5-5zm0 8c-1.654 0-3-1.346-3-3s1.346-3 3-3 3 1.346 3 3-1.346 3-3 3z" fill="white" />
  <path d="M12 6a1 1 0 0 1 1 1v1a1 1 0 0 1-2 0V7a1 1 0 0 1 1-1zM12 16a1 1 0 0 1 1 1v1a1 1 0 0 1-2 0v-1a1 1 0 0 1 1-1zM6 12a1 1 0 0 1 1-1h1a1 1 0 0 1 0 2H7a1 1 0 0 1-1-1zM16 12a1 1 0 0 1 1-1h1a1 1 0 0 1 0 2h-1a1 1 0 0 1-1-1zM7.757 8.757a1 1 0 0 1 1.415 0l.707.707a1 1 0 1 1-1.414 1.414l-.707-.707a1 1 0 0 1 0-1.414zM14.121 15.121a1 1 0 0 1 1.415 0l.707.707a1 1 0 0 1-1.414 1.414l-.707-.707a1 1 0 0 1 0-1.414zM8.757 16.243a1 1 0 0 1 0-1.414l.707-.707a1 1 0 1 1 1.414 1.414l-.707.707a1 1 0 0 1-1.414 0zM15.121 9.879a1 1 0 0 1 0-1.414l.707-.707a1 1 0 0 1 1.414 1.414l-.707.707a1 1 0 0 1-1.414 0z" fill="white" fill-opacity="0.7" />
</svg> 