<svg xmlns="http://www.w3.org/2000/svg" viewBox="0 0 24 24" width="24" height="24">
  <path d="M1.197 11.594c0 0-1.69 5.362 3.71 9.58 0 0 0.5 0.42 1.03 0.1 0 0 0.441-0.229 0.431-0.91 -0.02-1.399-1.911-4.12 0.5-7.469 0 0 2.429-4.069 7.01-5.399 0 0 2.37-0.811 2.31 1.13 0 0 0.099 0.979-0.811 1.1 0 0-4.07 1.25-6.17 3.971 0 0-1.629 1.979-1.569 3.37 0 0 0.039 0.92 0.889 0.16 0 0 6.54-2.371 9.27-0.24 0 0 1.31 1.061-0.29 2.31 0 0-1.73 1.25-7.18 1.25 0 0-5.239 0.11-7.31-2.681C1.975 17.873 0.056 15.033 1.197 11.594" fill="#2684FF"/>
  <path d="M22.803 12.406c0 0 1.69-5.362-3.71-9.58 0 0-0.5-0.42-1.03-0.1 0 0-0.441 0.229-0.431 0.91 0.02 1.399 1.911 4.12-0.5 7.469 0 0-2.429 4.069-7.01 5.399 0 0-2.37 0.811-2.31-1.13 0 0-0.099-0.979 0.811-1.1 0 0 4.07-1.25 6.17-3.971 0 0 1.629-1.979 1.569-3.37 0 0-0.039-0.92-0.889-0.16 0 0-6.54 2.371-9.27 0.24 0 0-1.31-1.061 0.29-2.31 0 0 1.73-1.25 7.18-1.25 0 0 5.239-0.11 7.31 2.681C22.025 6.127 23.944 8.967 22.803 12.406" fill="#2684FF"/>
</svg> 