<svg xmlns="http://www.w3.org/2000/svg" viewBox="0 0 24 24" width="24" height="24">
  <path d="M11.571 11.513H0a5.218 5.218 0 0 0 5.232 5.215h2.13v2.057A5.215 5.215 0 0 0 12.575 24V12.518a1.005 1.005 0 0 0-1.005-1.005z" fill="#2684FF"/>
  <path d="M5.968 6.299H17.54a5.218 5.218 0 0 0-5.232-5.215h-2.13V0a5.215 5.215 0 0 0-5.214 5.215v11.483a1.005 1.005 0 0 0 1.005 1.005z" fill="#2684FF"/>
  <path opacity=".3" d="M11.571 11.513h5.968a5.218 5.218 0 0 0-5.232-5.215h-2.13V4.242A5.215 5.215 0 0 0 5.963 9.456v11.483a1.005 1.005 0 0 0 1.005 1.005h4.603z" fill="#2684FF"/>
</svg> 