<svg xmlns="http://www.w3.org/2000/svg" viewBox="0 0 24 24" width="24" height="24">
  <path d="M4.459 4.208c.746.606 1.026.56 2.428.466l13.215-.793c.28 0 .047-.28-.046-.326L17.86 1.968c-.42-.326-.981-.7-2.055-.607L3.01 2.295c-.466.046-.56.28-.374.466l1.823 1.447zm1.775 2.24c.28.233.607.42 1.727.373l11.95-.84c.28-.47.327-.14.187-.326l-1.727-1.727c-.28-.28-.748-.373-1.403-.327l-11.387.84c-.329.047-.422.28-.284.514l.887 1.494zm-.515 3.083c.256.187.56.326 1.356.28l12.518-.84c.327 0 .42-.046.28-.232l-1.727-1.727c-.28-.28-.747-.373-1.402-.327l-11.54.84c-.328.047-.42.28-.279.466l.794 1.54zm-.513 3.083c.28.187.56.326 1.356.28l12.518-.84c.326 0 .42-.046.279-.232l-1.727-1.727c-.28-.28-.746-.373-1.402-.327l-11.54.84c-.327.046-.419.28-.279.466l.795 1.54zm.654 5.136c.746.466 1.822.7 3.928.327l11.448-2.055c.7-.14 1.026-.373 1.026-.7V4.555c0-.327-.186-.606-.56-.653l-18.603 1.4c-.373.047-.56.373-.56.653v16.775c0 .28.187.513.56.606-.47.093 1.215-10.636 2.761-1.121z" fill="#000"/>
</svg> 